<svg width="20" height="20" viewBox="0 0 20 20" fill="none" xmlns="http://www.w3.org/2000/svg">
<path d="M10.75 1V4C10.75 4.19891 10.671 4.38968 10.5303 4.53033C10.3897 4.67098 10.1989 4.75 10 4.75C9.80109 4.75 9.61032 4.67098 9.46967 4.53033C9.32902 4.38968 9.25 4.19891 9.25 4V1C9.25 0.801088 9.32902 0.610322 9.46967 0.46967C9.61032 0.329018 9.80109 0.25 10 0.25C10.1989 0.25 10.3897 0.329018 10.5303 0.46967C10.671 0.610322 10.75 0.801088 10.75 1ZM19 9.25H16C15.8011 9.25 15.6103 9.32902 15.4697 9.46967C15.329 9.61032 15.25 9.80109 15.25 10C15.25 10.1989 15.329 10.3897 15.4697 10.5303C15.6103 10.671 15.8011 10.75 16 10.75H19C19.1989 10.75 19.3897 10.671 19.5303 10.5303C19.671 10.3897 19.75 10.1989 19.75 10C19.75 9.80109 19.671 9.61032 19.5303 9.46967C19.3897 9.32902 19.1989 9.25 19 9.25ZM14.7728 13.7125C14.631 13.5778 14.4422 13.5038 14.2466 13.5063C14.0511 13.5088 13.8642 13.5876 13.7259 13.7259C13.5876 13.8642 13.5088 14.0511 13.5063 14.2466C13.5038 14.4422 13.5778 14.631 13.7125 14.7728L15.8331 16.8944C15.9739 17.0351 16.1647 17.1142 16.3638 17.1142C16.5628 17.1142 16.7536 17.0351 16.8944 16.8944C17.0351 16.7536 17.1142 16.5628 17.1142 16.3638C17.1142 16.1647 17.0351 15.9739 16.8944 15.8331L14.7728 13.7125ZM10 15.25C9.80109 15.25 9.61032 15.329 9.46967 15.4697C9.32902 15.6103 9.25 15.8011 9.25 16V19C9.25 19.1989 9.32902 19.3897 9.46967 19.5303C9.61032 19.671 9.80109 19.75 10 19.75C10.1989 19.75 10.3897 19.671 10.5303 19.5303C10.671 19.3897 10.75 19.1989 10.75 19V16C10.75 15.8011 10.671 15.6103 10.5303 15.4697C10.3897 15.329 10.1989 15.25 10 15.25ZM5.22719 13.7125L3.10562 15.8331C2.96489 15.9739 2.88583 16.1647 2.88583 16.3638C2.88583 16.5628 2.96489 16.7536 3.10562 16.8944C3.24636 17.0351 3.43723 17.1142 3.63625 17.1142C3.83527 17.1142 4.02614 17.0351 4.16687 16.8944L6.2875 14.7728C6.42221 14.631 6.49621 14.4422 6.4937 14.2466C6.4912 14.0511 6.4124 13.8642 6.2741 13.7259C6.1358 13.5876 5.94894 13.5088 5.75337 13.5063C5.5578 13.5038 5.36898 13.5778 5.22719 13.7125ZM4.75 10C4.75 9.80109 4.67098 9.61032 4.53033 9.46967C4.38968 9.32902 4.19891 9.25 4 9.25H1C0.801088 9.25 0.610322 9.32902 0.46967 9.46967C0.329018 9.61032 0.25 9.80109 0.25 10C0.25 10.1989 0.329018 10.3897 0.46967 10.5303C0.610322 10.671 0.801088 10.75 1 10.75H4C4.19891 10.75 4.38968 10.671 4.53033 10.5303C4.67098 10.3897 4.75 10.1989 4.75 10ZM4.16687 3.10562C4.02614 2.96489 3.83527 2.88583 3.63625 2.88583C3.43723 2.88583 3.24636 2.96489 3.10562 3.10562C2.96489 3.24636 2.88583 3.43723 2.88583 3.63625C2.88583 3.83527 2.96489 4.02614 3.10562 4.16687L5.22719 6.2875C5.36898 6.42221 5.5578 6.49621 5.75337 6.4937C5.94894 6.4912 6.1358 6.4124 6.2741 6.2741C6.4124 6.1358 6.4912 5.94894 6.4937 5.75337C6.49621 5.5578 6.42221 5.36898 6.2875 5.22719L4.16687 3.10562Z" fill="#F9FAFB"/>
</svg>
